:SAMPLES-PER-SECOND 30
:FULLY-SPECIFIED
:DEGREES
123
root  -34.1254 41.4698 -4.55811 157.187 -86.6554 -157.994
RightUpLeg  -18.3403 -7.76723 0.990824
RightLeg  19.7489 -1.79566 -0.574389
RightFoot  -6.93259 -0.252674 5.32579
RightToes  -1.16417e-010 0 -3.6325e-017
Spine  3.93966 -4.25429 -0.701739
Spine1  2.85327 -5.58393 5.22905
HEad  -13.0983 10.6316 -3.4221
LeftShoulder1  7.71378 -11.2401 -45.606
LeftArm  6.97131 21.8899 -29.4372
LeftForeArm  178.627 -57.5127 -165.07
LeftHand  -0.244104 0.0205437 5.32207
RightShoulder  5.04041 8.83638 34.8885
RightArm  17.7878 -40.3535 21.2717
RightForeArm  148.944 66.546 155.039
RightHand  -0.402821 -14.9499 3.74271
LeftUpLeg  8.04546 16.4246 -0.329209
LeftLeg  17.0216 1.22708 -0.45419
LeftFoot  -0.298551 0.33914 -3.52367
LeftToes  -1.16419e-010 -9.34044e-011 -2.32061e-011
124
root  -36.1696 41.5451 -4.51992 163.477 -85.8107 -164.373
RightUpLeg  -16.832 -8.03325 2.19942
RightLeg  11.4071 -2.67818 1.50755
RightFoot  -10.0458 -0.132053 5.83202
RightToes  -1.16417e-010 0 -3.6325e-017
Spine  3.36605 -4.61086 0.639018
Spine1  3.31 -5.64984 4.13486
HEad  -12.3452 10.8809 -3.31449
LeftShoulder1  7.69166 -11.4334 -44.8596
LeftArm  8.12486 19.3852 -28.5374
LeftForeArm  -179.857 -56.7412 -165.615
LeftHand  -0.244104 0.0205437 5.32207
RightShoulder  4.85527 8.87117 33.2893
RightArm  13.7252 -43.7875 23.3583
RightForeArm  149.264 65.5929 156.107
RightHand  -0.335842 -15.1904 2.86966
LeftUpLeg  8.37724 17.3165 0.257205
LeftLeg  21.5597 0.418816 0.677878
LeftFoot  2.84349 0.696155 -5.80816
LeftToes  -1.16419e-010 -9.34044e-011 -2.32061e-011
125
root  -38.1364 41.1448 -4.52375 163.97 -85.2517 -165.934
RightUpLeg  -15.4815 -4.27988 2.44827
RightLeg  9.03502 -5.14459 2.76203
RightFoot  -12.5175 -0.0273354 6.19778
RightToes  -1.16417e-010 0 -3.6325e-017
Spine  3.72827 -4.62308 1.79146
Spine1  4.53387 -5.43235 3.47394
HEad  -12.6453 10.3753 -3.90349
LeftShoulder1  7.65507 -11.5366 -44.3167
LeftArm  8.60012 16.1367 -28.1972
LeftForeArm  179.282 -57.1044 -165.345
LeftHand  -0.244104 0.0205437 5.32207
RightShoulder  4.55543 8.6831 31.4315
RightArm  8.25707 -46.1459 27.3401
RightForeArm  148.385 65.2264 156.384
RightHand  -0.239971 -15.3017 1.75466
LeftUpLeg  7.65497 14.2243 0.618968
LeftLeg  30.5432 3.58985 2.64955
LeftFoot  0.815585 0.764293 -7.21662
LeftToes  -1.16419e-010 -9.34044e-011 -2.32061e-011
126
root  -40.0647 40.401 -4.55695 161.909 -84.749 -165.256
RightUpLeg  -15.6216 -4.62268 4.41708
RightLeg  13.0714 -2.6914 1.83334
RightFoot  -11.1033 -0.0618515 3.81096
RightToes  -1.16417e-010 0 -3.6325e-017
Spine  4.505 -4.29639 3.18116
Spine1  5.60775 -4.73641 2.62911
HEad  -12.841 9.27262 -4.23403
LeftShoulder1  7.46651 -11.3928 -43.6048
LeftArm  9.09818 12.4774 -29.0281
LeftForeArm  178.027 -58.5452 -164.428
LeftHand  -0.244104 0.0205437 5.32207
RightShoulder  4.31316 8.44566 30.1379
RightArm  2.3823 -48.0242 31.1041
RightForeArm  150.583 64.5196 157.31
RightHand  -0.18867 -15.0917 1.22074
LeftUpLeg  6.63866 12.1621 1.74053
LeftLeg  40.8973 5.34511 5.32377
LeftFoot  -2.93626 0.528502 -6.90086
LeftToes  -1.16419e-010 -9.34044e-011 -2.32061e-011
127
root  -41.92 39.4993 -4.55118 154.302 -84.0492 -158.939
RightUpLeg  -17.2067 -6.63152 7.25213
RightLeg  21.5723 0.00680913 0.0468512
RightFoot  -7.32589 0.0279457 -2.18483
RightToes  -1.16417e-010 0 -3.6325e-017
Spine  5.95365 -3.9936 5.57447
Spine1  5.81615 -3.89715 1.49196
HEad  -13.3494 8.25919 -3.98358
LeftShoulder1  7.19137 -10.9571 -43.2471
LeftArm  9.02973 9.00646 -30.8157
LeftForeArm  179.539 -60.3647 -163.442
LeftHand  -0.244104 0.0205437 5.32207
RightShoulder  4.35554 8.36418 30.7466
RightArm  -1.50809 -48.0539 31.3507
RightForeArm  151.474 63.4187 158.433
RightHand  -0.0432665 -14.4324 -0.493528
LeftUpLeg  4.95651 10.0676 3.61799
LeftLeg  50.7567 5.78194 7.97152
LeftFoot  -5.5205 0.3138 -5.53739
LeftToes  -1.16419e-010 -9.34044e-011 -2.32061e-011
128
root  -43.6565 38.5759 -4.51841 141.829 -83.5036 -147.617
RightUpLeg  -19.0285 -5.42093 8.86051
RightLeg  31.6572 -2.10434 -1.71843
RightFoot  -6.85531 0.233353 -7.54593
RightToes  -1.16417e-010 0 -3.6325e-017
Spine  8.05836 -4.17412 7.4008
Spine1  5.66343 -3.86575 1.67328
HEad  -15.1924 8.21341 -4.01388
LeftShoulder1  7.13976 -10.4988 -44.3947
LeftArm  7.3494 7.04443 -32.2214
LeftForeArm  -176.622 -62.2233 -162.526
LeftHand  -0.244104 0.0205437 5.32207
RightShoulder  4.67899 8.31924 33.6304
RightArm  -2.13538 -43.3857 27.425
RightForeArm  145.608 63.773 157.489
RightHand  0.261624 -13.7981 -4.49581
LeftUpLeg  1.90554 7.18451 5.86184
LeftLeg  59.8994 4.98775 9.76636
LeftFoot  -7.09287 0.204101 -4.36962
LeftToes  -1.16419e-010 -9.34044e-011 -2.32061e-011
129
root  -45.2778 37.8626 -4.5355 126.541 -83.5796 -133.201
RightUpLeg  -19.5369 -5.57017 9.79421
RightLeg  39.8197 -3.65511 -3.53193
RightFoot  -11.3445 -0.0648644 -8.93802
RightToes  -1.16417e-010 0 -3.6325e-017
Spine  9.79594 -4.5954 7.16245
Spine1  6.21431 -4.68103 3.9427
HEad  -17.7128 8.79618 -4.75538
LeftShoulder1  7.51923 -10.4641 -46.9441
LeftArm  4.57959 7.85847 -32.2124
LeftForeArm  -174.222 -64.1009 -161.334
LeftHand  -0.244104 0.0205437 5.32207
RightShoulder  5.08415 8.21577 37.3602
RightArm  -2.20623 -34.5964 23.8668
RightForeArm  138.612 66.4843 153.881
RightHand  0.504948 -13.9576 -7.53369
LeftUpLeg  -2.74353 3.77372 7.82997
LeftLeg  67.435 3.71631 10.5156
LeftFoot  -8.65618 0.13537 -3.55023
LeftToes  -1.16419e-010 -9.34044e-011 -2.32061e-011
130
root  -46.8828 37.5706 -4.60784 112.658 -84.1173 -119.742
RightUpLeg  -17.8752 -6.30337 9.83994
RightLeg  43.532 -4.30428 -4.67442
RightFoot  -16.6736 -0.465766 -7.59404
RightToes  -1.16417e-010 0 -3.6325e-017
Spine  10.2456 -4.51824 6.49693
Spine1  7.32687 -4.913 5.5183
HEad  -19.0553 8.45745 -5.04978
LeftShoulder1  8.10458 -10.8586 -49.251
LeftArm  2.88049 11.3349 -30.8248
LeftForeArm  -175.817 -65.6821 -159.838
LeftHand  -0.244104 0.0205437 5.32207
RightShoulder  5.40961 8.19441 40.0969
RightArm  -4.22582 -26.8414 24.5483
RightForeArm  140.681 69.3207 150.481
RightHand  0.434104 -15.3176 -5.92083
LeftUpLeg  -8.21867 1.09313 8.8919
LeftLeg  71.6385 2.92581 10.7549
LeftFoot  -10.157 0.0901572 -2.87035
LeftToes  -1.16419e-010 -9.34044e-011 -2.32061e-011
131
root  -48.5459 37.734 -4.66658 108.232 -84.8493 -115.373
RightUpLeg  -14.3889 -6.3347 8.97014
RightLeg  42.9877 -4.69852 -4.98904
RightFoot  -19.3031 -0.568352 -6.24647
RightToes  -1.16417e-010 0 -3.6325e-017
Spine  9.68232 -3.59844 7.69154
Spine1  8.01763 -3.27664 3.32248
HEad  -18.7079 6.35899 -3.51613
LeftShoulder1  8.37594 -11.1595 -49.856
LeftArm  3.89077 15.9531 -28.4712
LeftForeArm  -179.794 -66.3892 -158.761
LeftHand  -0.244104 0.0205437 5.32207
RightShoulder  5.65917 8.35788 41.478
RightArm  -7.3487 -23.3626 28.7505
RightForeArm  151.359 69.5976 151.426
RightHand  0.1404 -16.0692 -2.32237
LeftUpLeg  -13.2057 0.269185 8.76576
LeftLeg  71.4829 2.89377 10.5463
LeftFoot  -11.0332 0.0730252 -2.65506
LeftToes  -1.16419e-010 -9.34044e-011 -2.32061e-011
132
root  -50.2468 38.2562 -4.68439 116.95 -85.7975 -123.879
RightUpLeg  -10.0412 -5.84229 7.28654
RightLeg  39.9049 -4.88032 -4.65933
RightFoot  -19.5713 -0.526826 -5.47738
RightToes  -1.16417e-010 0 -3.6325e-017
Spine  8.96523 -1.96384 9.86571
Spine1  7.83758 -0.316677 -1.38158
HEad  -17.8054 3.3144 -0.633008
LeftShoulder1  8.17389 -11.0871 -48.8912
LeftArm  6.75474 20.4044 -25.7718
LeftForeArm  177.652 -66.1582 -158.702
LeftHand  -0.244104 0.0205437 5.32207
RightShoulder  5.90271 8.65936 42.2441
RightArm  -8.37555 -22.1898 33.0051
RightForeArm  156.09 67.8031 154.423
RightHand  0.189363 -15.2625 -3.23249
LeftUpLeg  -17.1231 1.16284 7.50947
LeftLeg  67.3217 3.30766 9.43355
LeftFoot  -11.3718 0.0675343 -2.83276
LeftToes  -1.16419e-010 -9.34044e-011 -2.32061e-011
133
root  -51.9589 38.9702 -4.69123 132.13 -86.9326 -138.38
RightUpLeg  -5.79793 -5.99538 5.0606
RightLeg  35.6991 -4.35204 -3.63109
RightFoot  -18.6783 -0.408351 -4.38645
RightToes  -1.16417e-010 0 -3.6325e-017
Spine  7.97889 -0.074451 10.7537
Spine1  7.24081 2.34127 -4.93574
HEad  -17.0136 0.589435 1.78885
LeftShoulder1  7.84753 -10.9012 -47.5331
LeftArm  9.28729 24.7061 -23.4146
LeftForeArm  177.517 -65.7453 -159.08
LeftHand  -0.244104 0.0205437 5.32207
RightShoulder  6.06354 8.91807 42.5101
RightArm  -5.44004 -20.6179 34.635
RightForeArm  150.097 66.3773 155.363
RightHand  0.495455 -13.2857 -7.99521
LeftUpLeg  -20.2906 2.83867 5.46258
LeftLeg  59.9751 3.65725 7.41624
LeftFoot  -11.9786 0.0545034 -3.02636
LeftToes  -1.16419e-010 -9.34044e-011 -2.32061e-011
134
root  -53.686 39.6864 -4.68937 141.878 -88.1799 -146.872
RightUpLeg  -2.15422 -7.45634 2.8985
RightLeg  31.1837 -2.83882 -2.11362
RightFoot  -16.4648 -0.23433 -2.7007
RightToes  -1.16417e-010 0 -3.6325e-017
Spine  6.06831 1.60518 10.3505
Spine1  6.98424 4.01924 -6.24684
HEad  -16.1598 -1.57554 2.59564
LeftShoulder1  7.58976 -10.8214 -46.1994
LeftArm  10.5038 29.1857 -21.7955
LeftForeArm  178.085 -65.7961 -159.092
LeftHand  -0.244104 0.0205437 5.32207
RightShoulder  6.00129 9.00664 41.722
RightArm  -0.34761 -18.3187 34.4857
RightForeArm  146.205 65.9163 155.418
RightHand  0.473727 -12.1277 -8.97641
LeftUpLeg  -22.8442 4.84493 3.2076
LeftLeg  49.8349 3.71522 5.14916
LeftFoot  -12.6706 0.0328698 -3.73346
LeftToes  -1.16419e-010 -9.34044e-011 -2.32061e-011
135
root  -55.4062 40.3049 -4.65511 137.908 -89.2085 -141.518
RightUpLeg  1.18068 -9.6038 1.09218
RightLeg  26.7589 -0.572552 -0.554997
RightFoot  -13.0321 -0.0998629 -0.66783
RightToes  -1.16417e-010 0 -3.6325e-017
Spine  3.82413 2.9363 9.98709
Spine1  7.09303 5.15411 -6.87392
HEad  -15.0083 -3.3989 2.21553
LeftShoulder1  7.44568 -10.8851 -45.0855
LeftArm  10.6295 33.5907 -20.2921
LeftForeArm  178.254 -66.0435 -158.879
LeftHand  -0.244104 0.0205437 5.32207
RightShoulder  5.76502 8.99723 39.9782
RightArm  4.56997 -16.0383 34.4474
RightForeArm  151.424 65.6167 156.316
RightHand  0.16826 -14.1139 -3.38388
LeftUpLeg  -24.2459 7.74675 0.893709
LeftLeg  37.0438 3.60354 3.34613
LeftFoot  -11.8244 0.0512332 -5.07357
LeftToes  -1.16419e-010 -9.34044e-011 -2.32061e-011
